<svg xmlns="http://www.w3.org/2000/svg" xmlns:xlink="http://www.w3.org/1999/xlink" id="Livello_1" x="0px" y="0px" viewBox="0 0 197.8 197.8" style="enable-background:new 0 0 197.8 197.8;" xml:space="preserve">
<g>
	<g>
		<path d="M75.7,193.8c0-6.2,0-11.8,0-17.4c0-20.8,0-41.5,0-62.3c0-10.8,0.5-8.4-10.2-10.8c-0.8-0.2-1.6-0.1-2.5,0    c-3.8,0.1-5.6-1.2-5.4-5.5c0.4-8.9,0.1-17.9,0.1-27.4c5.6-0.6,11-1.2,17-1.9c0-2.7-0.2-5.8,0-8.9c0.5-7.7,1.1-15.5,1.8-23.2    c1.3-14,12.8-24.5,27.2-25.9c12-1.2,24.2-0.2,36.6-0.2c0,10.3,0,20.2,0,30.7c-7.9,1.2-15.9,2.5-24.3,3.9c0,7.8,0,15.7,0,23.8    c8.1,0.4,16.1,0.7,24.9,1.1c-0.5,11.5-1,22.2-1.4,33c-8.9,0.5-16.4,0.9-24.8,1.4c0,2.1,0,4,0,5.9c0,26.1-0.1,52.1,0.1,78.2    c0,3.9-0.7,5.7-5.1,5.6C98.7,193.6,87.6,193.8,75.7,193.8z"></path>
	</g>
</g>
</svg>