<svg xmlns="http://www.w3.org/2000/svg" xmlns:xlink="http://www.w3.org/1999/xlink" id="Livello_1" x="0px" y="0px" viewBox="0 0 166.2 166.2" style="enable-background:new 0 0 166.2 166.2;" xml:space="preserve">
<g>
	<g>
		<path d="M4.6,84.3c0-14.9-0.6-29.9,0.2-44.8C5.5,26.3,13.1,16.8,24,9.9C30.1,6,36.7,4.3,44.2,4.3c27.4,0.3,54.8,0.1,82.2,0    c11.9-0.1,20.1,6.5,27.3,14.8c6.9,8,9.5,17.2,9.2,27.9c-0.5,24.4-0.2,48.8-0.1,73.2c0,9.8-1.6,18.9-7.4,27.3    c-7.1,10.3-16.7,16.2-29.1,16.3c-28.2,0.3-56.4,0-84.7,0c-20.1,0-36.8-16.7-36.8-36.7c0-14.3,0-28.6,0-42.8    C4.8,84.3,4.7,84.3,4.6,84.3z M121.4,75.6c2,12.4,2,23.9-5.1,34.4c-7.2,10.5-16.4,17.4-29.3,17.9c-10,0.3-19.2-2.5-27.1-9.1    c-14-11.7-15.9-27-12.5-43.8c-8.9,0-17.1,0-25.5,0c0,16.8,0.1,33.2,0,49.7c-0.1,13.3,8.9,22.4,22.4,22.4c25.9,0,51.8,0,77.7,0.1    c14.4,0.1,22.6-10.5,23.2-21.9c0.9-15.2,0.2-30.5-0.1-45.8c0-1.3-1.8-3.6-2.8-3.6C135.5,75.5,128.7,75.6,121.4,75.6z M144.9,57.3    c0-5.9,0.6-10.9-0.1-15.8c-1.6-11.4-10.1-20-19.2-20c-27.4-0.1-54.8-0.2-82.2-0.1c-7.2,0-13,3.3-17.5,9c-6.3,8-3.9,17.3-4,26.8    c17.8-1,35.2,2.5,52.1-5.6c5.9-2.8,14.1-0.7,21.3-0.9C110.8,60.9,128.1,56,144.9,57.3z M83.8,102.1c7.8,0.1,13.1-5.2,13.4-13.3    c0.3-7.9-6.7-13.6-11.6-13.4c-8.6,0.3-14.6,4.9-14.8,12.1C70.4,95.2,76.5,102,83.8,102.1z"></path>
		<path d="M113.5,50.4c0-6.7-0.1-13,0.1-19.2c0-0.8,0.8-1.8,1.5-2.4c3.9-3,14.3-3.3,18.5-0.6c4.2,2.7,5.6,8,3.9,15.2    c-1.6,7.1-1.6,7.1-9.1,7.1C123.7,50.4,118.9,50.4,113.5,50.4z"></path>
	</g>
</g>
</svg>